<svg xmlns="http://www.w3.org/2000/svg"  viewBox="0 0 50 50" width="100px" height="100px"><path fill="#008b8b" d="M 24.5 2 C 23.675781 2 23 2.675781 23 3.5 L 23 9.5 C 23 10.324219 23.675781 11 24.5 11 C 25.324219 11 26 10.324219 26 9.5 L 26 3.5 C 26 2.675781 25.324219 2 24.5 2 Z M 10.0625 7.5625 C 9.675781 7.5625 9.292969 7.707031 9 8 C 8.417969 8.582031 8.417969 9.539063 9 10.121094 L 13.441406 14.5625 C 14.023438 15.144531 14.980469 15.144531 15.5625 14.5625 C 16.148438 13.980469 16.148438 13.027344 15.5625 12.441406 L 11.121094 8 C 10.828125 7.707031 10.445313 7.5625 10.0625 7.5625 Z M 38.9375 7.5625 C 38.554688 7.5625 38.171875 7.707031 37.878906 8 L 33.4375 12.441406 C 32.855469 13.023438 32.855469 13.980469 33.4375 14.5625 C 34.019531 15.144531 34.976563 15.144531 35.558594 14.5625 L 40 10.121094 C 40.582031 9.539063 40.582031 8.582031 40 8 C 39.707031 7.707031 39.324219 7.5625 38.9375 7.5625 Z M 24.5 14 C 19.269531 14 15 18.269531 15 23.5 L 15 27 L 13 27 C 11.898438 27 11 27.898438 11 29 L 11 46 C 11 47.101563 11.898438 48 13 48 L 36 48 C 37.101563 48 38 47.101563 38 46 L 38 29 C 38 27.898438 37.101563 27 36 27 L 34 27 L 34 23.5 C 34 18.269531 29.730469 14 24.5 14 Z M 24.5 20 C 26.398438 20 28 21.601563 28 23.5 L 28 27 L 21 27 L 21 23.5 C 21 21.601563 22.601563 20 24.5 20 Z M 4.5 21 C 3.675781 21 3 21.675781 3 22.5 C 3 23.324219 3.675781 24 4.5 24 L 10.5 24 C 11.324219 24 12 23.324219 12 22.5 C 12 21.675781 11.324219 21 10.5 21 Z M 38.5 21 C 37.675781 21 37 21.675781 37 22.5 C 37 23.324219 37.675781 24 38.5 24 L 44.5 24 C 45.324219 24 46 23.324219 46 22.5 C 46 21.675781 45.324219 21 44.5 21 Z M 24.5 34 C 25.882813 34 27 35.117188 27 36.5 C 27 37.316406 26.605469 38.03125 26 38.488281 L 26 40.5 C 26 41.324219 25.324219 42 24.5 42 C 23.675781 42 23 41.324219 23 40.5 L 23 38.488281 C 22.394531 38.03125 22 37.316406 22 36.5 C 22 35.117188 23.117188 34 24.5 34 Z"/></svg>