<?xml version="1.0"?><svg xmlns="http://www.w3.org/2000/svg"  viewBox="0 0 50 50" width="100px" height="100px"><path fill="#008b8b" d="M 7 4 C 6.447 4 6 4.448 6 5 C 6 5.551 5.552 6 5 6 C 4.447 6 4 6.448 4 7 L 4 11 C 4 11.552 4.447 12 5 12 C 5.552 12 6 12.449 6 13 C 6 13.551 5.552 14 5 14 C 4.447 14 4 14.448 4 15 L 4 19 C 4 19.552 4.447 20 5 20 C 5.552 20 6 20.449 6 21 C 6 21.551 5.552 22 5 22 C 4.447 22 4 22.448 4 23 L 4 27 C 4 27.553 4.447 28 5 28 C 5.552 28 6 28.448 6 29 C 6 29.552 5.552 30 5 30 C 4.447 30 4 30.447 4 31 L 4 35 C 4 35.553 4.447 36 5 36 C 5.552 36 6 36.448 6 37 C 6 37.552 5.552 38 5 38 C 4.447 38 4 38.447 4 39 L 4 43 C 4 43.553 4.447 44 5 44 C 5.552 44 6 44.448 6 45 C 6 45.553 6.447 46 7 46 L 11 46 C 11.553 46 12 45.553 12 45 C 12 44.448 12.448 44 13 44 C 13.552 44 14 44.448 14 45 C 14 45.553 14.447 46 15 46 L 19 46 C 19.553 46 20 45.553 20 45 C 20 44.448 20.448 44 21 44 C 21.552 44 22 44.448 22 45 C 22 45.553 22.447 46 23 46 L 27 46 C 27.553 46 28 45.553 28 45 C 28 44.448 28.448 44 29 44 C 29.552 44 30 44.448 30 45 C 30 45.553 30.447 46 31 46 L 35 46 C 35.553 46 36 45.553 36 45 C 36 44.448 36.448 44 37 44 C 37.552 44 38 44.448 38 45 C 38 45.553 38.447 46 39 46 L 43 46 C 43.553 46 44 45.553 44 45 C 44 44.448 44.448 44 45 44 C 45.553 44 46 43.553 46 43 L 46 39 C 46 38.447 45.553 38 45 38 C 44.448 38 44 37.552 44 37 C 44 36.448 44.448 36 45 36 C 45.553 36 46 35.553 46 35 L 46 31 C 46 30.447 45.553 30 45 30 C 44.448 30 44 29.552 44 29 C 44 28.448 44.448 28 45 28 C 45.553 28 46 27.553 46 27 L 46 23 C 46 22.448 45.553 22 45 22 C 44.448 22 44 21.551 44 21 C 44 20.449 44.448 20 45 20 C 45.553 20 46 19.552 46 19 L 46 15 C 46 14.448 45.553 14 45 14 C 44.448 14 44 13.551 44 13 C 44 12.449 44.448 12 45 12 C 45.553 12 46 11.552 46 11 L 46 7 C 46 6.448 45.553 6 45 6 C 44.448 6 44 5.551 44 5 C 44 4.448 43.553 4 43 4 L 39 4 C 38.447 4 38 4.448 38 5 C 38 5.551 37.552 6 37 6 C 36.448 6 36 5.551 36 5 C 36 4.448 35.553 4 35 4 L 31 4 C 30.447 4 30 4.448 30 5 C 30 5.551 29.552 6 29 6 C 28.448 6 28 5.551 28 5 C 28 4.448 27.553 4 27 4 L 23 4 C 22.447 4 22 4.448 22 5 C 22 5.551 21.552 6 21 6 C 20.448 6 20 5.551 20 5 C 20 4.448 19.553 4 19 4 L 15 4 C 14.447 4 14 4.448 14 5 C 14 5.551 13.552 6 13 6 C 12.448 6 12 5.551 12 5 C 12 4.448 11.553 4 11 4 L 7 4 z M 16.980469 11 L 33.558594 11 L 32.494141 16 L 20.978516 16 L 19.910156 21 L 38.320312 21 L 37.558594 24.107422 L 28.074219 33.330078 C 28.933219 33.463078 29.760344 33.660156 30.652344 33.660156 C 32.822344 33.660156 35.317906 33.000641 37.003906 32.306641 L 36.138672 36.371094 C 33.658672 37.561094 32.137344 37.660156 30.652344 37.660156 C 29.033344 37.660156 27.479578 37.132813 25.892578 37.132812 C 25.000578 37.132812 23.710969 37.197563 22.917969 37.726562 L 21.199219 34.685547 L 30.982422 25 L 19.052734 25 L 16.708984 36 L 11.679688 36 L 16.980469 11 z"/></svg>