<?xml version="1.0" standalone="no"?>
<!DOCTYPE svg PUBLIC "-//W3C//DTD SVG 20010904//EN"
 "http://www.w3.org/TR/2001/REC-SVG-20010904/DTD/svg10.dtd">
<svg version="1.0" xmlns="http://www.w3.org/2000/svg"
 width="797.000000pt" height="797.000000pt" viewBox="0 0 797.000000 797.000000"
 preserveAspectRatio="xMidYMid meet">
<metadata>
Created by potrace 1.14, written by Peter Selinger 2001-2017
</metadata>
<g transform="translate(0.000000,797.000000) scale(0.100000,-0.100000)"
fill="#000000" stroke="none">
<path d="M5065 7894 c-16 -17 -52 -57 -80 -89 -27 -32 -58 -67 -69 -79 -10
-11 -37 -43 -60 -70 -22 -27 -50 -59 -61 -71 -33 -37 -65 -74 -170 -195 -55
-63 -104 -120 -110 -126 -19 -21 -120 -137 -138 -158 -9 -12 -28 -32 -40 -46
-13 -14 -68 -77 -122 -140 -96 -111 -143 -165 -175 -200 -8 -9 -39 -45 -69
-81 -30 -35 -64 -73 -75 -85 -12 -11 -39 -43 -61 -70 -22 -26 -47 -55 -55 -64
-8 -8 -37 -42 -65 -75 -27 -32 -57 -66 -65 -75 -17 -18 -84 -95 -138 -158 -20
-24 -54 -62 -74 -84 -21 -22 -38 -44 -38 -48 0 -5 -4 -10 -8 -12 -5 -1 -40
-39 -78 -83 -38 -44 -73 -85 -79 -91 -10 -11 -106 -121 -138 -158 -68 -79
-116 -134 -140 -160 -15 -16 -40 -45 -55 -64 -15 -19 -44 -52 -64 -73 -21 -22
-38 -41 -38 -44 0 -3 -8 -13 -17 -23 -10 -10 -43 -46 -73 -81 -30 -35 -59 -69
-65 -75 -34 -38 -142 -163 -150 -174 -5 -7 -22 -25 -36 -40 -14 -15 -52 -58
-85 -97 -32 -38 -64 -74 -70 -80 -5 -5 -39 -44 -75 -85 -35 -41 -72 -84 -82
-95 -10 -11 -33 -37 -50 -58 -18 -22 -48 -56 -67 -77 -19 -21 -42 -46 -50 -57
-53 -62 -209 -242 -230 -264 -14 -15 -34 -38 -45 -51 -29 -36 -123 -144 -172
-197 -24 -25 -43 -49 -43 -53 0 -5 -5 -8 -10 -8 -7 0 -9 464 -8 1387 l3 1388
90 2 c50 1 250 4 445 7 195 4 421 8 502 9 81 2 149 5 150 7 2 3 31 37 64 75
33 39 72 83 85 99 13 16 35 41 49 56 14 15 43 49 65 75 22 27 47 55 56 64 8 9
40 45 70 81 30 35 63 74 74 85 11 12 39 44 62 71 75 90 115 135 229 264 26 30
55 64 64 74 8 11 25 30 38 43 12 13 22 26 22 28 0 2 10 15 23 28 12 12 45 50
73 82 29 33 79 92 112 130 54 62 59 71 41 75 -16 4 -3659 5 -3691 1 -5 -1 -8
-1770 -8 -3932 l0 -3932 33 37 c17 20 41 46 52 59 86 100 123 142 140 162 11
12 43 48 70 80 28 32 55 63 60 69 6 6 43 49 84 96 40 47 87 101 105 121 17 19
56 64 86 99 30 36 65 75 77 87 12 12 27 31 35 41 12 17 100 119 156 180 12 14
40 46 62 72 22 26 50 58 62 72 13 13 42 46 65 74 23 27 50 58 60 70 68 79 131
150 148 170 21 23 88 101 164 188 24 28 55 64 70 81 14 16 57 66 95 110 38 44
72 82 75 85 3 3 31 34 61 70 30 36 60 70 65 76 6 6 33 37 60 69 28 32 59 68
70 80 11 13 43 49 70 81 122 141 209 239 217 242 4 2 8 8 8 12 0 5 10 20 22
32 13 13 48 52 78 87 80 93 89 103 118 136 15 17 54 62 87 100 63 73 106 123
140 160 11 13 38 44 60 71 22 26 47 55 56 63 8 9 37 43 65 75 27 33 60 71 73
85 13 14 44 51 70 81 25 30 57 67 71 81 14 15 36 39 49 55 61 73 209 243 245
284 23 25 64 72 91 104 28 33 65 75 83 95 50 55 62 69 142 164 40 48 77 87 82
87 4 0 8 6 8 14 0 8 4 16 9 18 4 2 27 26 51 53 77 91 155 179 178 203 12 12
22 25 22 27 0 3 8 14 18 24 45 49 83 92 137 156 33 39 69 79 80 90 11 11 36
41 56 65 20 25 49 59 65 76 16 17 53 60 83 95 30 35 62 71 70 80 9 8 32 35 51
59 19 24 42 51 51 59 8 9 60 68 114 131 54 63 101 117 105 120 3 3 30 34 60
70 30 36 58 67 61 70 3 3 35 39 70 80 35 41 76 89 90 105 15 17 64 73 109 125
46 52 99 114 119 136 49 56 126 144 199 229 l61 70 273 2 c150 1 375 2 500 3
125 1 231 -1 236 -4 4 -2 14 -1 22 4 8 5 22 5 32 -1 10 -5 18 -6 18 -2 0 4
231 8 513 8 281 0 519 1 527 3 14 3 16 80 16 685 l0 682 -1391 0 -1390 0 -30
-31z"/>
<path d="M5804 6234 c-21 -25 -48 -56 -59 -68 -11 -12 -42 -48 -70 -80 -27
-32 -59 -68 -70 -80 -18 -20 -52 -58 -175 -200 -19 -22 -42 -47 -50 -56 -14
-15 -95 -107 -137 -156 -39 -46 -129 -149 -148 -170 -11 -12 -31 -35 -45 -50
-14 -16 -59 -67 -100 -114 -41 -47 -81 -93 -90 -104 -8 -10 -22 -26 -30 -35
-9 -9 -43 -47 -75 -86 -33 -38 -67 -76 -75 -85 -30 -33 -139 -156 -180 -205
-24 -27 -46 -52 -49 -55 -3 -3 -31 -34 -61 -70 -30 -36 -66 -77 -80 -91 -14
-15 -34 -38 -45 -52 -11 -14 -36 -42 -55 -64 -19 -21 -96 -108 -170 -193 -74
-85 -137 -157 -140 -160 -3 -3 -30 -34 -60 -69 -30 -35 -64 -74 -75 -85 -23
-24 -77 -86 -150 -171 -27 -32 -54 -63 -60 -69 -5 -6 -41 -47 -80 -91 -38 -44
-74 -85 -80 -91 -12 -13 -112 -128 -138 -158 -10 -12 -32 -37 -50 -56 -18 -20
-52 -60 -77 -89 -25 -29 -54 -63 -65 -75 -11 -12 -45 -51 -75 -85 -30 -35 -68
-78 -85 -96 -16 -18 -50 -57 -75 -86 -25 -30 -56 -66 -70 -81 -14 -14 -45 -50
-70 -79 -25 -29 -58 -67 -74 -84 -15 -16 -42 -47 -60 -68 -17 -21 -46 -55 -65
-75 -18 -20 -72 -82 -119 -137 -48 -55 -97 -110 -109 -122 -13 -12 -23 -24
-23 -27 0 -3 -10 -15 -22 -28 -20 -20 -71 -78 -148 -168 -12 -14 -36 -41 -53
-60 -67 -74 -114 -128 -167 -190 -30 -35 -62 -71 -70 -80 -8 -9 -42 -47 -75
-85 -33 -39 -77 -89 -99 -112 -21 -23 -46 -53 -55 -65 -8 -13 -23 -30 -32 -38
-15 -14 -202 -227 -245 -278 -10 -13 -36 -41 -56 -63 -21 -21 -38 -41 -38 -44
0 -2 -10 -14 -22 -27 -13 -13 -48 -52 -78 -87 -30 -35 -64 -73 -75 -86 -11
-12 -45 -51 -75 -86 -30 -35 -63 -71 -72 -81 -10 -10 -18 -20 -18 -22 0 -3
-12 -17 -27 -33 -16 -16 -57 -62 -93 -102 -36 -41 -74 -85 -85 -97 -11 -12
-38 -44 -60 -70 -22 -26 -53 -62 -70 -79 -45 -48 -110 -128 -110 -134 0 -3
1360 -6 3023 -6 l3023 0 42 38 c23 21 71 65 107 97 36 32 77 69 91 81 77 71
215 197 235 214 12 11 57 52 100 90 43 39 101 91 128 116 59 54 77 70 182 164
85 77 83 75 209 190 48 44 97 88 109 98 12 10 41 37 66 60 25 23 83 75 127
116 45 41 80 77 78 80 -2 4 -1015 6 -2252 5 -1236 0 -2251 1 -2255 3 -7 4 23
41 75 95 9 10 17 22 17 27 0 5 4 11 9 13 4 2 46 46 91 98 107 122 200 228 225
256 11 12 38 43 60 69 21 25 48 57 60 69 25 29 62 71 145 166 36 41 67 77 70
80 3 3 34 39 69 80 36 41 70 80 75 85 6 6 38 42 70 80 33 39 64 75 70 80 6 6
38 42 71 80 33 39 62 72 65 75 3 3 34 39 70 80 36 41 70 80 75 86 6 6 35 40
65 75 30 35 64 73 75 85 11 12 43 48 70 79 28 32 57 66 65 75 8 9 40 46 70 81
30 35 62 70 70 79 16 17 129 147 145 167 6 7 24 28 40 46 17 18 53 58 80 90
28 33 61 71 75 87 14 15 48 53 75 85 28 32 57 66 65 75 8 9 42 47 75 85 33 39
62 72 65 75 3 3 30 34 60 70 30 35 62 71 71 80 9 8 44 49 80 90 35 41 66 77
69 80 3 3 34 39 70 80 36 41 70 80 75 86 25 28 132 149 148 168 10 12 37 43
60 70 23 27 47 56 53 64 10 13 98 15 718 15 393 0 709 4 712 9 4 6 8 1123 5
1336 l-1 32 -1018 0 -1018 0 -40 -46z"/>
</g>
</svg>
