<?xml version="1.0" encoding="UTF-8" standalone="no"?>
<!-- Generator: Adobe Illustrator 19.2.1, SVG Export Plug-In . SVG Version: 6.00 Build 0)  -->

<svg
   version="1.1"
   id="layer"
   x="0px"
   y="0px"
   viewBox="0 0 2500 1000"
   xml:space="preserve"
   sodipodi:docname="ate.svg"
   width="2500"
   height="1000"
   inkscape:export-filename="ate.png"
   inkscape:export-xdpi="96"
   inkscape:export-ydpi="96"
   xmlns:inkscape="http://www.inkscape.org/namespaces/inkscape"
   xmlns:sodipodi="http://sodipodi.sourceforge.net/DTD/sodipodi-0.dtd"
   xmlns="http://www.w3.org/2000/svg"
   xmlns:svg="http://www.w3.org/2000/svg"><defs
   id="defs24" /><sodipodi:namedview
   id="namedview24"
   pagecolor="#ffffff"
   bordercolor="#000000"
   borderopacity="0.25"
   inkscape:showpageshadow="2"
   inkscape:pageopacity="0.0"
   inkscape:pagecheckerboard="0"
   inkscape:deskcolor="#d1d1d1" />
<style
   type="text/css"
   id="style1">
	.st0{fill:#005CA9;}
	.st1{fill:#FFFFFF;}
	.st2{fill-rule:evenodd;clip-rule:evenodd;fill:#FFFFFF;}
</style>


<g
   id="g3"
   transform="translate(3.6744423e-6,-397.68226)"><g
     id="g24"
     transform="matrix(2.4721879,0,0,2.4721879,440.5984,210.53764)"><rect
       x="15.1"
       y="75.699997"
       class="st0"
       width="623.59998"
       height="404.5"
       id="rect1" /><path
       class="st1"
       d="M 158.4,429.5 H 495.5 V 126.4 H 158.4 Z M 171.9,138.6 H 482 V 417.4 H 171.9 Z"
       id="path1" /><path
       class="st1"
       d="m 239.5,344.3 c 2.4,-2.8 4.8,-5.5 7.2,-8.1 h 54.9 l -18.9,40.7 h 44.9 l 23.1,-5.6 c 3.3,8.7 13.2,12.2 49,-0.7 6.7,13.4 23.6,9.6 42.1,0.5 l 5.2,-10.6 c -11.8,5.4 -26.4,10.7 -29.1,4.5 2.8,-0.9 11.8,-2.7 19.2,-8 7.4,-5.3 6.7,-18.5 -8.9,-18.7 -16.8,-0.2 -29.1,9.7 -31,24.4 l -7.5,2.5 c -4.4,1.3 -5.2,-0.9 -4,-2.8 L 396.2,340 h 10.1 l 1.8,-3.9 H 460 l 2.6,-5.4 h -51.9 l 1.9,-3.9 h -10 L 412.9,305 h -34.5 l -10.1,21.8 h -8.7 l -1.9,3.9 h -10.1 l 11.6,-23.9 c 5,-10 4.2,-17 -0.7,-20.9 -6.2,-4.9 -38.2,-16.6 -76.5,6.9 -17.2,10.6 -31.8,22.6 -45.3,37.8 h -32.3 l -3.9,5.4 H 232 c -14.1,16.8 -27.3,37.4 -41.6,63.6 H 455.5 L 461.8,386 H 210.2 c 0,0.2 14.1,-23.8 29.3,-41.7 m 182.6,2.9 c 6.3,-2.8 8.4,3.6 4.1,6.3 -2.7,1.6 -6.3,2.7 -10.4,3.7 0,0 -0.9,-5.9 6.3,-10 m -76.9,-11 h 10 l -1.8,3.9 h 8.6 l -10.6,22.6 -21,5.2 z M 284.3,309 c 18.1,-7.1 28,2.3 24.5,11.7 l -4.5,10.1 h -52.2 c 10.3,-9.9 20.7,-17.3 32.2,-21.8"
       id="path2" /><path
       class="st2"
       d="m 454.4,373.2 h 1.3 l 2.2,3.6 h 1.6 l -2.4,-3.7 c 1.3,-0.1 2.2,-0.8 2.2,-2.3 0,-1.7 -1.1,-2.4 -3.1,-2.4 H 453 v 8.4 h 1.4 z m 0,-1.2 v -2.5 h 1.7 c 0.8,0 1.9,0.1 1.9,1.1 0,1.2 -0.9,1.3 -2,1.3 h -1.6 z m 9.1,0.4 c 0,-4.6 -3.5,-7.6 -7.6,-7.6 -4.1,0 -7.6,3 -7.6,7.6 0,4.3 3.2,7.6 7.6,7.6 4.1,0 7.6,-3 7.6,-7.6 m -1.6,0 c 0,3.7 -2.6,6.3 -5.9,6.3 -3.7,0 -6,-2.8 -6,-6.3 0,-3.7 2.6,-6.3 6,-6.3 3.3,0.1 5.9,2.6 5.9,6.3"
       id="path3" /></g></g><rect
   x="0"
   y="0"
   class="st0"
   width="712.19031"
   height="1000"
   id="rect1-5"
   style="fill:#005ca9;stroke-width:1.6803" /><rect
   x="1800"
   y="0"
   class="st0"
   width="700"
   height="1000"
   id="rect1-5-1"
   style="fill:#005ca9;stroke-width:1.66586" />
</svg>
