<?xml version="1.0" encoding="UTF-8" standalone="no"?>
<svg
   height="1000"
   viewBox="10.907 -0.2337481 193.186 82.02202"
   width="2500"
   version="1.1"
   id="svg1"
   sodipodi:docname="brembo-logo-2.svg"
   xmlns:inkscape="http://www.inkscape.org/namespaces/inkscape"
   xmlns:sodipodi="http://sodipodi.sourceforge.net/DTD/sodipodi-0.dtd"
   xmlns="http://www.w3.org/2000/svg"
   xmlns:svg="http://www.w3.org/2000/svg">
  <defs
     id="defs1" />
  <sodipodi:namedview
     id="namedview1"
     pagecolor="#ffffff"
     bordercolor="#000000"
     borderopacity="0.25"
     inkscape:showpageshadow="2"
     inkscape:pageopacity="0.0"
     inkscape:pagecheckerboard="0"
     inkscape:deskcolor="#d1d1d1" />
  <path
     d="m 33.342,23.291532 c -2.516,0.07 -4.962,0.56 -7.268,1.608 l 3.005,5.312 c 1.328,-0.559 2.866,-0.908 4.263,-0.908 0.49,0 0.909,0.069 1.398,0.138 5.731,0.42 10.344,6.362 9.926,12.022 -0.49,6.22 -5.453,10.135 -11.324,10.415 h -1.119 c -3.843,-0.839 -7.058,-2.446 -8.945,-6.081 l -6.29,-10.904 c -0.84,2.517 -1.119,4.894 -0.91,7.48 0.98,8.248 7.27,14.537 15.517,15.516 0.559,0.07 1.189,0.07 1.747,0.07 9.576,-0.14 17.264,-7.759 17.404,-17.264 -0.14,-9.436 -7.34,-16.705 -16.495,-17.404 z m 0,39.7 c -12.3,0 -22.435,-10.064 -22.435,-22.296 0,-6.01 2.375,-11.463 6.29,-15.516 l 10.693,18.452 c 0.489,0.837 1.188,1.607 2.026,2.236 0.98,0.56 2.097,0.978 3.285,0.978 h 0.14 c 4.334,0.14 7.338,-4.543 5.871,-8.387 -0.839,-2.446 -3.285,-4.053 -5.87,-4.053 -0.35,0 -0.7,0 -1.049,0.07 -1.887,0.21 -3.774,1.816 -4.613,3.494 l -8.456,-14.678 a 22.315,22.315 0 0 1 14.118,-5.032 c 12.372,0 22.436,10.065 22.436,22.436 0,12.232 -10.064,22.296 -22.436,22.296 m 57.104,-19.64 -3.424,-5.802 c -0.14,0.56 -0.21,1.119 -0.21,1.748 v 16.007 h 6.15 v -7.55 z m 36.415,-1.189 3.285,5.662 v 7.409 h -0.07 v 0.07 h -6.92 v -19.5 z m 0,-3.074 3.285,5.59 v -3.633 c 0,-2.656 4.473,-2.865 4.473,0 v 14.188 h 4.124 v 0.07 h 3.564 v -14.258 c 0,-2.656 4.474,-2.865 4.474,0 v 14.258 h 6.92 v -14.608 c 0,-7.898 -9.926,-9.365 -13.56,-4.404 -2.237,-3.074 -6.85,-3.704 -10.066,-1.886 v -0.979 h -6.5 z m 38.581,6.849 -7.548,-13.07 v 22.367 h 6.15 v -0.909 a 10.583,10.583 0 0 0 4.753,1.118 c 5.941,0 10.833,-4.892 10.833,-10.903 0,-5.94 -4.892,-10.833 -10.833,-10.833 -1.747,0 -3.355,0.42 -4.752,1.118 v -9.016 h -6.151 v 3.913 l 7.688,13.21 c 0.56,-1.118 1.817,-1.956 3.215,-1.956 1.958,0 3.565,1.607 3.565,3.564 0,1.957 -1.607,3.565 -3.565,3.565 -1.538,0 -2.796,-0.839 -3.355,-2.167 z m 24.602,0.209 -5.03,-8.666 c -1.679,1.887 -2.657,4.333 -2.657,7.059 0,6.01 4.893,10.903 10.903,10.903 5.941,0 10.833,-4.892 10.833,-10.903 0,-5.94 -4.892,-10.833 -10.833,-10.833 -2.726,0 -5.173,0.978 -7.13,2.656 l 3.914,6.64 a 3.588,3.588 0 0 1 3.216,-2.027 c 1.957,0 3.565,1.607 3.565,3.564 0,1.957 -1.608,3.565 -3.565,3.565 -1.398,0 -2.656,-0.77 -3.216,-1.958 z m -79.26,3.496 c 1.12,-0.42 1.888,-1.469 2.098,-2.657 h 7.129 a 11.04,11.04 0 0 1 -9.227,8.388 c -0.419,0 -0.908,0.069 -1.397,0.069 -5.94,0 -10.833,-4.892 -10.833,-10.903 0,-2.377 0.768,-4.473 2.027,-6.29 l 5.591,9.575 c 0.56,1.258 1.747,2.096 3.215,2.096 0.489,0 0.978,-0.069 1.397,-0.278 z m 0,-6.99 h 2.168 c -0.14,-1.327 -0.98,-2.377 -2.168,-2.865 -0.419,-0.21 -0.908,-0.28 -1.397,-0.28 -1.886,0 -3.355,1.328 -3.495,3.145 z m 0,-8.876 c -0.419,0 -0.908,-0.07 -1.397,-0.07 -2.935,0 -5.731,1.258 -7.688,3.284 l 5.172,8.947 v -0.49 h 13.35 c 0,-0.35 0.07,-0.628 0.07,-0.908 0,-5.451 -4.195,-10.064 -9.507,-10.763 z m -20.338,6.498 -2.586,-4.403 a 5.214,5.214 0 0 1 2.586,-1.677 c 0.56,-0.21 1.188,-0.28 1.748,-0.28 h 4.962 v 5.732 h -1.399 c -1.607,0 -2.795,1.117 -2.795,2.795 v 2.168 z m -21.386,5.663 -7.62,-13.07 v 22.367 h 6.152 v -0.909 c 1.468,0.7 3.075,1.118 4.752,1.118 5.941,0 10.904,-4.892 10.904,-10.903 0,-5.94 -4.963,-10.833 -10.904,-10.833 -1.677,0 -3.284,0.42 -4.752,1.118 v -9.016 H 61.44 v 3.913 l 7.688,13.21 c 0.56,-1.118 1.817,-1.956 3.215,-1.956 1.958,0 3.565,1.607 3.565,3.564 0,1.957 -1.608,3.564 -3.565,3.564 -1.467,0 -2.725,-0.839 -3.284,-2.167"
     fill="#c7070f"
     fill-rule="evenodd"
     id="path1" />
</svg>
