<?xml version="1.0" encoding="UTF-8" standalone="no"?>
<svg
   width="2500"
   height="1000"
   viewBox="0 0 192.756 77.1024"
   version="1.1"
   id="svg2"
   xmlns="http://www.w3.org/2000/svg"
   xmlns:svg="http://www.w3.org/2000/svg">
  <defs
     id="defs2" />
  <g
     id="g2"
     transform="translate(0,-57.90505)">
    <path
       fill="#5065a8"
       d="m 8.504,77.275 v 38.249 h 10.1 v -29.15 h 8.178 v 29.15 h 10.093 v -29.15 h 8.18 v 29.15 H 55.153 V 77.275 Z m 80.477,0 V 77.232 H 70.359 v 0.043 h -6.506 v 38.249 h 10.092 v -8.878 h 8.179 v 8.878 H 92.223 V 77.275 Z m -15.035,9.099 h 8.179 v 11.137 h -8.179 z m 45.079,-9.099 v 14.534 h -8.179 V 77.275 h -10.094 v 38.249 h 10.094 v -14.579 h 8.179 v 14.579 h 10.098 V 77.275 Z m 39.291,29.091 H 147.223 V 77.275 h -10.098 v 38.249 l 21.191,-0.021 z M 184.252,86.417 V 77.28 l -21.885,-0.005 v 38.249 l 21.885,-0.043 v -9.136 h -11.793 v -5.308 h 11.793 v -9.141 h -11.793 v -5.479 z"
       id="path2"
       style="clip-rule:evenodd;fill-rule:evenodd" />
  </g>
</svg>
