<?xml version="1.0" encoding="UTF-8" standalone="no"?>
<svg
   height="999.99994"
   viewBox="0 2.5 900 357.91665"
   width="2500"
   version="1.1"
   id="svg2"
   xmlns="http://www.w3.org/2000/svg"
   xmlns:svg="http://www.w3.org/2000/svg">
  <defs
     id="defs2" />
  <g
     id="g2"
     transform="matrix(0.83912906,0,0,0.83912906,72.391923,-1.2537518)"
     style="fill:#ffffff">
    <path
       d="M 1.7,4.1 C 0.1,5 0,16.2 0,217 c 0,116.5 0.3,212.5 0.6,213.4 0.6,1.5 41.1,1.6 450,1.6 H 900 V 4.2 L 896.9,3.6 C 891.3,2.5 3.7,3 1.7,4.1 Z m 117.5,45.6 c 0.9,1 3.3,4.9 5.4,8.8 2.1,3.8 4.8,8.8 6,11 7.2,12.7 12.6,22.6 16.4,29.9 3.1,6.1 6.3,9.9 7.2,8.6 0.2,-0.3 3.2,-6.1 6.7,-13 3.4,-6.9 10.1,-20 14.7,-29.2 4.7,-9.1 9.1,-16.9 10,-17.2 2.4,-0.9 57.7,-0.7 59.2,0.2 1,0.7 1.2,16.1 1,73.8 l -0.3,72.9 -19.4,0.3 c -11,0.1 -19.8,-0.2 -20.5,-0.7 -0.8,-0.7 -0.9,-7.2 -0.5,-23.3 1.2,-42 1,-77.8 -0.4,-77.8 -0.7,0 -1.7,0.9 -2.2,1.9 -2.8,5.6 -6.8,13.1 -8.9,16.6 -2.3,4.2 -3.7,6.6 -18.3,33.5 -1.7,3 -4.5,8.2 -6.3,11.5 -6.5,11.9 -12.4,23.1 -13.9,26.2 -2.7,5.9 -1.1,8.3 -24.6,-36.2 -2.3,-4.4 -5.7,-10.7 -7.5,-14 -3.5,-6.4 -9.8,-18.2 -16.2,-30.5 -2.2,-4.1 -4.5,-7.5 -5.1,-7.5 -0.9,0 -1.2,12.1 -1.4,50 l -0.2,50 H 59.5 L 59.2,124 c -0.1,-39.3 0,-72.5 0.3,-73.8 L 60,48 h 28.9 c 26.2,0 28.9,0.2 30.3,1.7 z m 409,-0.5 c 1.3,1.1 6.2,8.1 7.8,11.3 0.7,1.5 7.2,11.4 16.1,24.8 4.4,6.5 7.9,12 7.9,12.4 0,0.3 1.4,2.2 3,4.3 1.7,2.1 3,4 3,4.3 0,0.3 2.7,4.5 6,9.4 3.3,4.8 6,9.3 6,10 0,0.7 0.4,1.3 0.9,1.3 0.5,0 1.4,1.2 2,2.7 0.6,1.6 2,4.1 3.1,5.8 1,1.6 3.1,5.4 4.5,8.2 2.8,5.5 4,6.5 4.7,3.5 0.2,-0.9 0.1,-17.7 -0.2,-37.3 -0.4,-19.6 -0.4,-41.4 -0.1,-48.5 l 0.6,-12.9 h 40 l 0.3,73.7 0.2,73.8 h -27.7 c -15.3,0 -28.3,-0.4 -28.8,-0.8 -1.3,-0.9 -6.4,-8.6 -8.1,-12.2 -0.4,-0.8 -1,-1.7 -1.4,-2 -0.3,-0.3 -2.3,-3.3 -4.4,-6.8 -2.1,-3.4 -7.1,-11.2 -11.2,-17.2 -4.1,-6.1 -7.4,-11.5 -7.4,-12 0,-0.6 -0.3,-1 -0.7,-1 -0.5,0 -2.1,-2.3 -3.8,-5.1 -1.6,-2.8 -3.8,-6.3 -4.7,-7.8 -1,-1.4 -2.2,-3.5 -2.8,-4.6 -0.5,-1.1 -1.4,-2.7 -2,-3.5 -3,-4.6 -9,-15.2 -11,-19.5 -2.8,-5.7 -6.5,-10.1 -7.4,-8.6 -0.3,0.5 -0.1,4.4 0.5,8.6 0.6,4.3 1.1,26.5 1.2,49.9 l 0.2,42.1 h -41 L 473.2,123 c -0.1,-39.9 0,-73.1 0.3,-73.8 0.3,-0.9 6.6,-1.2 26.8,-1.2 19.5,0 26.7,0.3 27.9,1.2 z M 736.6,53 c 1.8,2.5 3.3,4.8 3.3,5.1 0.1,0.4 3.5,5.7 7.6,11.8 4.1,6.2 7.5,11.6 7.5,12.1 0,0.4 0.4,1 0.8,1.2 0.4,0.1 1.9,2.1 3.2,4.3 1.3,2.2 2.8,4.4 3.3,5 1.9,2.4 7.7,11.8 7.7,12.6 0,0.5 0.3,0.9 0.8,0.9 0.4,0 1.6,1.7 2.7,3.7 1.1,2 2.5,4.1 3.1,4.7 1.4,1.5 17.4,28.2 17.4,29.2 0.1,0.5 1.2,2.2 2.5,3.9 3.3,4.1 3.8,2.2 2.5,-10.6 -1.2,-12.7 -2.6,-82.5 -1.6,-86.2 l 0.6,-2.7 20.3,0.2 20.2,0.3 0.3,73.7 0.2,73.8 h -55.6 l -2.2,-3 c -1.2,-1.6 -2.2,-3.1 -2.2,-3.4 0,-0.3 -2,-3.4 -4.5,-7 -2.5,-3.7 -4.5,-6.8 -4.5,-7.1 0,-0.2 -1.3,-2.4 -2.9,-4.7 -3.9,-5.7 -20.3,-30.8 -21.6,-32.9 -0.5,-1 -4.6,-7.7 -9.1,-15.1 -4.5,-7.3 -9.1,-15.4 -10.3,-18 -1.3,-2.7 -2.7,-5 -3.2,-5.4 -0.5,-0.3 -0.9,-1.4 -0.9,-2.5 0,-2.4 -2.6,-2.5 -3.2,-0.2 -0.2,1 0,14.8 0.4,30.8 0.5,15.9 0.7,37.8 0.6,48.5 l -0.3,19.5 h -41 l -0.3,-72.4 c -0.1,-53.1 0.1,-72.7 0.9,-73.8 1,-1.1 6.2,-1.3 27.7,-1.1 l 26.5,0.3 z m -348,-2.3 c 0.3,1 1.3,3.4 2.2,5.3 0.8,1.9 2.1,4.8 2.8,6.5 1.4,3.6 3.2,7.6 7.3,16.8 1.7,3.7 3.1,6.9 3.1,7.1 0,0.3 1.4,3.5 3.1,7.3 1.7,3.7 3.7,8.4 4.6,10.3 0.8,1.9 2.2,5.1 3,7 0.9,1.9 2.2,4.8 2.9,6.5 1.5,3.8 3.7,8.9 6,14 0.9,2.2 2.3,5.3 3,7 0.7,1.6 2.7,6.1 4.4,10 3.4,7.5 3.8,8.3 7,16 1.2,2.7 2.7,6.3 3.5,8 0.7,1.6 2,4.6 2.8,6.5 2.8,6.6 5,11.5 5.8,13.2 0.5,1 0.9,2.2 0.9,2.8 0,0.7 -7.9,0.9 -23.7,0.8 l -23.7,-0.3 -2.9,-7 c -3.3,-7.9 -4.6,-10.9 -7.7,-17.8 l -2.2,-4.7 h -65.6 l -2.6,5.5 c -1.4,3.1 -2.6,5.8 -2.6,6 0,0.3 -1.3,3.3 -2.8,6.7 -1.6,3.5 -3.4,7.5 -4,9 L 312,196 h -21.4 c -12.5,0 -21.7,-0.4 -22.1,-1 -0.3,-0.5 0.3,-2.8 1.4,-5.2 1.1,-2.4 3.3,-7.4 5,-11.1 1.7,-3.8 3.1,-7.1 3.1,-7.4 0,-0.4 1.4,-3.6 3.1,-7.2 2.9,-6.3 4,-8.8 7.3,-16.6 0.9,-2 2.2,-5 3,-6.8 0.8,-1.7 2.2,-5 3.1,-7.2 0.9,-2.2 2.3,-5.4 3,-7 0.7,-1.7 2,-4.6 2.9,-6.5 2,-4.7 5.3,-12.3 8.3,-19 3.1,-7.1 4.9,-11.2 6.6,-15.3 2.5,-6 4.4,-10.2 6,-13.7 0.9,-1.9 2.5,-5.8 3.7,-8.5 3.9,-9.1 5.3,-12 6.3,-13.3 0.7,-0.9 7.7,-1.2 28.9,-1.2 25.7,0 27.9,0.1 28.4,1.7 z M 173.5,245.5 v 13 l -34.5,0.5 -34.5,0.5 v 32 L 138,292 c 18.4,0.3 33.5,0.7 33.5,0.8 0,0.1 -0.1,5.9 -0.2,12.9 l -0.1,12.8 -33.4,0.5 -33.3,0.5 -0.5,29.5 -0.5,29.5 h -44 l -0.3,-72 c -0.1,-39.6 0,-72.6 0.3,-73.3 0.3,-1 12.3,-1.2 57.2,-1 l 56.8,0.3 z m 77,60 v 73 l -21,0.3 c -11.5,0.1 -21.9,0 -23,-0.2 -2,-0.5 -2,-1.3 -1.9,-72.8 0,-39.8 0.1,-72.6 0.2,-73.1 0.1,-0.4 10.4,-0.6 23,-0.5 l 22.7,0.3 z M 340,289.9 c 0,48.8 0.2,58 1.4,59 1,0.9 9,1.2 28.8,1 l 27.3,-0.1 v 28.7 h -103 l -0.3,-72 c -0.1,-39.6 0,-72.6 0.3,-73.3 0.3,-0.9 5.9,-1.2 23,-1.2 H 340 Z M 516.8,244 c 0.4,17.7 2.7,16 -20.8,16 -11,0 -20.1,0.1 -20.2,0.2 -0.2,0.2 -0.5,26.8 -0.8,59.3 l -0.5,59 h -45 L 429,320 428.5,261.5 408,261.2 c -14.8,-0.2 -20.6,-0.6 -21.2,-1.5 -0.9,-1.5 -1.1,-26.1 -0.1,-27 0.3,-0.4 29.7,-0.6 65.2,-0.5 l 64.6,0.3 z m 145.7,1.5 v 13 l -37,0.5 -37,0.5 -0.3,14.7 -0.3,14.8 35.3,0.2 35.3,0.3 0.3,12 c 0.1,6.6 0.1,12.9 -0.2,14 -0.5,2 -1.2,2 -34.2,1.7 -24.4,-0.2 -34,0 -35,0.9 -2,1.6 -2,31.1 -0.1,32.8 1,0.7 13.2,1.2 38.7,1.3 l 37.4,0.3 v 26 H 543.5 l -0.3,-73.3 -0.2,-73.2 59.7,0.2 59.8,0.3 z M 809,233.9 c 1.9,0.8 5.8,2.3 8.7,3.4 5.9,2.3 14,9.6 16.4,14.7 0.9,1.9 2.3,4.8 3,6.4 1.8,3.8 1.9,22 0.2,23.8 -0.7,0.6 -1.3,1.9 -1.3,2.8 0,1 -0.9,2.8 -2.1,4.1 -1.2,1.3 -2.6,3.1 -3.3,3.9 -2.8,3.8 -12.6,10 -17.1,11 -3.9,0.8 -4.8,4.6 -1.3,5.9 5.5,2.1 12.4,12.9 19.3,30.1 0.9,2.5 2.3,5.8 3,7.5 4.4,10.4 7,16.7 8.9,21.5 1,2.5 2.2,5.3 2.7,6.2 0.5,1 0.9,2.2 0.9,2.8 0,0.6 -8.1,1 -23,1 h -23 l -2,-4 c -1.1,-2.1 -2,-4.6 -2,-5.3 0,-0.8 -0.7,-2.8 -1.5,-4.3 -0.8,-1.6 -1.5,-3.6 -1.5,-4.5 0,-0.8 -0.4,-1.9 -0.9,-2.5 -0.5,-0.5 -1.4,-2.5 -1.9,-4.4 -2.1,-7 -4.4,-12.6 -7.3,-17.6 -6.3,-11.1 -12.3,-14.4 -26,-14.4 H 749 l -0.2,28.2 -0.3,28.3 h -44 l -0.3,-73.3 -0.2,-73.3 50.7,0.3 c 40.4,0.3 51.5,0.6 54.3,1.7 z"
       id="path1"
       style="fill:#ffffff" />
    <path
       d="m 356.7,81.7 c -0.4,0.3 -0.7,1.6 -0.7,2.8 0,1.2 -0.7,3 -1.5,4.1 -0.8,1 -1.5,2.6 -1.5,3.4 0,0.8 -0.7,2.8 -1.5,4.4 -0.8,1.5 -1.5,3.3 -1.5,3.8 0,0.6 -0.7,2.6 -1.6,4.6 -0.9,2.1 -2.2,5.2 -3,7 -0.8,1.8 -1.4,3.8 -1.4,4.5 0,0.7 -0.6,2.3 -1.3,3.7 -0.8,1.4 -1.6,3.4 -1.9,4.5 -0.4,1.1 -1.6,4.4 -2.7,7.4 -1.1,3 -1.8,5.8 -1.5,6.2 0.3,0.5 10.2,0.9 22,0.9 19.9,0 21.4,-0.1 21.4,-1.8 0,-1 -0.4,-2.2 -0.9,-2.8 -0.5,-0.5 -1.4,-2.5 -1.9,-4.4 -1.1,-3.9 -3,-9.4 -4.3,-12.5 -1.3,-3 -4,-10.7 -4.6,-13 -0.3,-1.1 -1.1,-3.4 -1.9,-5.2 -0.8,-1.7 -1.4,-3.5 -1.4,-4.1 0,-0.5 -0.7,-2.3 -1.5,-3.8 -0.8,-1.6 -1.5,-3.8 -1.5,-5 0,-1.1 -0.8,-2.8 -1.8,-3.7 -2,-1.9 -2.6,-2 -3.5,-1 z M 749.1,259 c -1.7,1 -1.6,32.7 0.1,34.7 0.7,0.9 4.1,1.3 11.4,1.3 17.4,0 27.2,-3.8 31.4,-12 2.4,-4.7 2.5,-8.1 0.4,-12.3 -1.9,-3.8 -6.3,-8.7 -7.8,-8.7 -0.6,0 -2.3,-0.6 -3.7,-1.4 -3,-1.5 -29.8,-2.9 -31.8,-1.6 z"
       id="path2"
       style="fill:#ffffff" />
  </g>
  <rect
     style="fill:#ffffff;stroke-width:0.36"
     id="rect2"
     width="78.012688"
     height="361.52209"
     x="0.95137423"
     y="0.50696081" />
  <rect
     style="fill:#ffffff;stroke-width:0.36"
     id="rect2-9"
     width="78.012688"
     height="361.52209"
     x="826.69397"
     y="1.458335" />
</svg>
