<?xml version="1.0" encoding="UTF-8" standalone="no"?>
<svg
   width="2500"
   height="1000"
   viewBox="0 0 192.756 77.1024"
   version="1.1"
   id="svg3"
   xmlns="http://www.w3.org/2000/svg"
   xmlns:svg="http://www.w3.org/2000/svg">
  <defs
     id="defs3" />
  <g
     id="g3"
     transform="matrix(1.1756425,0,0,1.1756425,-16.928076,-74.572293)">
    <path
       fill="#f6e546"
       d="m 14.399,84.734 h 26.543 l -1.553,5.272 H 17.473 Z m 3.602,6.132 h 21.19 l -1.488,5.057 h -16.99 z m 3.24,5.95 h 16.231 l -1.405,5.223 H 24.15 Z m 3.422,6.149 h 11.139 l -1.487,5.371 H 27.654 Z M 178.357,84.767 h -26.545 l 1.555,5.273 h 21.916 z m -3.605,6.132 h -21.188 l 1.489,5.058 h 16.99 z m -3.238,5.951 h -16.231 l 1.405,5.222 h 11.917 z m -3.42,6.146 h -11.141 l 1.488,5.373 h 6.661 z M 140.559,84.734 h 10.162 l 1.39,5.224 h -6.347 v 4.164 h 7.504 l 1.388,5.024 h -8.959 v 3.934 h 10.051 l 1.504,5.274 H 140.574 Z M 127.436,83.94 c 6.775,0 12.312,5.538 12.312,12.329 0,6.777 -5.537,12.312 -12.312,12.312 -6.795,0 -12.332,-5.535 -12.332,-12.312 0,-6.791 5.537,-12.329 12.332,-12.329 z m 0,4.875 c 4.082,0 7.436,3.357 7.436,7.454 0,4.084 -3.354,7.439 -7.436,7.439 -4.102,0 -7.455,-3.355 -7.455,-7.439 -10e-4,-4.097 3.353,-7.454 7.455,-7.454 z"
       id="path2"
       style="clip-rule:evenodd;fill-rule:evenodd" />
    <path
       d="m 98.857,84.106 h 9.305 c 2.481,0 6.992,1.884 6.992,7.636 0,5.752 -4.115,6.545 -4.115,6.545 l 6.99,10.016 -6.693,0.051 -7.455,-10.018 v 10.018 l -5.023,0.064 V 84.106 Z m 5.092,4.462 h 3.801 c 0.924,0 2.494,0.645 2.494,3.125 0,2.479 -2.248,3.405 -2.66,3.405 h -3.635 z M 81.42,108.418 V 84.387 L 82,84.155 92.047,94.866 92.097,84.155 h 5.784 v 24.314 l -0.578,0.347 -9.883,-11.222 v 10.824 z M 68.809,84.057 c 6.776,0 12.313,5.537 12.313,12.33 0,6.777 -5.537,12.312 -12.313,12.312 -6.793,0 -12.33,-5.535 -12.33,-12.312 0,-6.794 5.537,-12.33 12.33,-12.33 z m 0,4.875 c 4.083,0 7.438,3.356 7.438,7.455 0,4.082 -3.355,7.438 -7.438,7.438 -4.099,0 -7.454,-3.355 -7.454,-7.438 0,-4.099 3.355,-7.455 7.454,-7.455 z m -33.601,19.422 6.413,-23.967 h 0.693 l 4.446,9.503 4.331,-9.553 h 0.694 l 7.057,24.017 h -5.156 l -2.942,-9.208 -3.702,8.926 h -0.627 l -3.754,-8.926 -2.676,9.208 z"
       fill="#f6e546"
       id="path3"
       style="clip-rule:evenodd;fill-rule:evenodd" />
  </g>
</svg>
