<?xml version="1.0" encoding="UTF-8" standalone="no"?>
<svg
   height="1000"
   viewBox="0 0 162 64.801178"
   width="2500"
   version="1.1"
   id="svg3"
   xmlns="http://www.w3.org/2000/svg"
   xmlns:svg="http://www.w3.org/2000/svg">
  <defs
     id="defs3" />
  <g
     id="g4"
     transform="translate(0,10.451965)">
    <path
       d="M 0,0 H 162 V 44 H 0 Z"
       fill="#ed252f"
       id="path1" />
    <g
       fill="#ffffff"
       fill-rule="evenodd"
       id="g3">
      <path
         d="m 45.414,7.557 v 29.04 H 35.136 L 35.704,23.925 30.115,36.597 H 23.262 L 21.305,23.737 17.989,36.571 H 7.441 L 16.063,7.557 H 27.24 l 1.739,11.796 4.99,-11.796 z m 57.556,9.206 -4.615,-0.186 -2.366,19.994 H 84.807 l 2.544,-19.954 -4.248,0.146 -7.134,-9.219 h 27.971 z m 14.27,-9.219 -2.08,18.031 c -0.07,1.09 0.44,2.178 1.42,2.642 1.01,0.373 2.27,0.222 3.06,-0.527 0.7,-0.594 0.95,-1.398 1.14,-2.24 l 2.49,-17.906 h 10.68 l -2.31,19.863 c -0.5,2.833 -1.83,5.51 -4.39,7.317 -3.69,2.64 -8.62,3.043 -13.39,2.393 -3.79,-0.686 -8.11,-3.115 -9.35,-6.91 -0.53,-1.367 -0.44,-3.013 -0.44,-4.507 l 2.21,-18.155 h 10.96 m 28.33,19.849 h 8.78 l -2.59,9.177 h -18.7 l 3.89,-29.027 h 11.11 z"
         id="path2" />
      <path
         d="m 72.368,8.62 1.107,0.841 6.536,8.276 c 0.728,1.396 0.758,3.173 0.694,4.855 -0.093,5.562 -3.787,10.757 -8.938,13.09 C 65.484,38.609 57.083,37.239 52.158,32.45 47.8,28.372 46.915,21.498 49.189,16.211 c 2.653,-5.88 8.904,-9.553 15.348,-9.269 2.779,0.06 5.462,0.527 7.831,1.679 z m -6.757,7.965 c -2.369,-0.315 -4.612,0.775 -5.811,2.86 -1.01,1.743 -1.264,4.167 -0.191,5.942 0.759,1.491 2.339,2.52 4.012,2.674 2.178,0.187 4.106,-0.868 5.242,-2.674 1.168,-1.678 1.234,-4.419 0.283,-6.221 -0.631,-1.369 -2.116,-2.332 -3.535,-2.581 z"
         id="path3" />
    </g>
  </g>
  <rect
     style="fill:#ed252f;fill-opacity:1;stroke-width:0.0648012"
     id="rect4"
     width="162.12483"
     height="11.29644"
     x="-0.0014725"
     y="-0.62757999" />
  <rect
     style="fill:#ed252f;fill-opacity:1;stroke-width:0.0648012"
     id="rect4-4"
     width="162.12483"
     height="11.29644"
     x="-0.0014725"
     y="53.770298" />
</svg>
