<?xml version="1.0" encoding="UTF-8" standalone="no"?>
<svg
   width="2500"
   height="1000"
   viewBox="0 0 192.756 77.1024"
   version="1.1"
   id="svg3"
   xmlns="http://www.w3.org/2000/svg"
   xmlns:svg="http://www.w3.org/2000/svg">
  <defs
     id="defs3" />
  <g
     id="g3"
     transform="matrix(1.1012329,0,0,1.1012329,-10.148363,-71.18418)">
    <path
       d="M 38.75,99.821 A 5.907,5.907 0 1 0 26.937,99.822 5.907,5.907 0 0 0 38.75,99.821 Z"
       fill="#5177b7"
       id="path2"
       style="clip-rule:evenodd;fill-rule:evenodd" />
    <path
       d="m 40.53,95.774 c 1.888,1.972 2.948,4.139 2.948,6.413 0,6.537 -8.672,12.189 -21.258,14.874 -0.813,0.175 -0.783,0.474 0,0.453 15.788,-0.396 28.971,-4.734 33.629,-10.625 1.011,-1.277 0.654,-2.686 -0.055,-3.568 -2.64,-3.283 -7.929,-6.078 -14.839,-7.971 -0.389,-0.106 -0.663,0.176 -0.425,0.424 z m -15.792,8.504 c 0.387,0.105 0.662,-0.176 0.423,-0.424 -1.888,-1.973 -2.947,-4.139 -2.947,-6.413 0,-6.538 8.672,-12.19 21.257,-14.875 0.813,-0.173 0.784,-0.473 0,-0.453 -15.788,0.397 -28.97,4.736 -33.629,10.625 -1.011,1.277 -0.654,2.687 0.055,3.569 2.641,3.283 7.93,6.079 14.841,7.971 z m 89.008,1.312 -7.801,-13.846 h -4.908 l -7.803,13.846 h -0.006 l -1.778,3.152 h 5.49 l 1.265,-2.479 h 10.572 l 1.266,2.479 h 5.488 l -1.779,-3.152 z m -10.256,-9.684 3.842,7.525 H 99.65 Z m 51.36,2.749 h -10.625 v -6.911 h -4.909 v 16.998 h 4.909 v -6.896 h 10.625 v 6.896 h 4.908 V 91.744 h -4.908 z m 29.402,5.324 c 0,-2.587 -2.4,-3.759 -6.375,-4.883 -3.566,-1.087 -7.609,-1.789 -9.211,-2.574 -1.262,-0.612 -1.305,-2.462 3.883,-2.462 2.002,0 5.328,0.335 5.328,1.772 h 5.666 c 0,-3.321 -5.273,-4.607 -11.064,-4.607 -4.393,0 -10.197,1.164 -10.197,4.796 0,4.092 11.771,5.296 14.883,6.667 1.166,0.493 0.979,2.067 -1.193,2.902 h -0.027 c -0.832,0.316 -1.953,0.524 -3.396,0.524 -0.963,0 -2.348,-0.157 -3.453,-0.525 h -0.029 c -1.008,-0.341 -1.779,-0.859 -1.779,-1.599 H 161.6 c 0,0.605 0.164,1.141 0.455,1.611 h 0.01 c 1.711,2.738 7.746,3.33 10.842,3.33 5.973,0 9.588,-1.408 10.844,-3.332 h 0.01 a 2.977,2.977 0 0 0 0.491,-1.62 z m -92.795,0 c 0,-2.587 -2.399,-3.759 -6.376,-4.883 -3.564,-1.087 -7.609,-1.789 -9.209,-2.574 -1.264,-0.612 -1.306,-2.462 3.882,-2.462 2.004,0 5.329,0.335 5.329,1.772 h 5.665 c 0,-3.321 -5.273,-4.607 -11.063,-4.607 -4.393,0 -10.199,1.164 -10.199,4.796 0,4.092 11.773,5.296 14.886,6.667 1.166,0.493 0.978,2.067 -1.196,2.902 h -0.025 c -0.834,0.316 -1.955,0.524 -3.398,0.524 -0.962,0 -2.345,-0.157 -3.453,-0.525 h -0.029 c -1.008,-0.341 -1.78,-0.859 -1.78,-1.599 h -5.687 c 0,0.605 0.164,1.141 0.455,1.611 h 0.009 c 1.712,2.738 7.748,3.33 10.843,3.33 5.972,0 9.586,-1.408 10.844,-3.332 h 0.008 a 2.955,2.955 0 0 0 0.494,-1.62 z m 34.602,-9.89 c 3.994,0 5.545,1.552 5.545,2.402 h 5.443 c 0,-1.1 -1.9,-5.266 -10.988,-5.266 -8.488,0 -11.676,4.631 -11.678,8.861 0,1.911 0.652,3.904 2.15,5.516 h 0.01 c 1.818,1.945 4.875,3.33 9.518,3.33 5.957,0 8.826,-1.79 10.096,-3.332 h 0.01 c 0.66,-0.806 0.883,-1.543 0.883,-1.92 h -5.443 c 0,0.546 -0.643,1.38 -2.156,1.908 h -0.033 c -0.84,0.288 -1.945,0.481 -3.355,0.481 a 7.283,7.283 0 0 1 -2.66,-0.48 h -0.029 c -2.256,-0.894 -3.697,-2.935 -3.697,-5.503 -0.003,-3.484 2.647,-5.997 6.384,-5.997 z"
       fill="#5177b7"
       id="path3"
       style="clip-rule:evenodd;fill-rule:evenodd" />
  </g>
</svg>
