<?xml version="1.0" encoding="UTF-8" standalone="no"?>
<svg
   width="2500"
   height="1000"
   viewBox="0 0 192.756 77.1024"
   version="1.1"
   id="svg7"
   xmlns="http://www.w3.org/2000/svg"
   xmlns:svg="http://www.w3.org/2000/svg">
  <defs
     id="defs7" />
  <g
     id="g7"
     transform="matrix(1.1848008,0,0,1.1848008,-17.962688,-7.2154861)">
    <path
       fill="#cc2229"
       d="M 96.33645,31.791045 84.393456,48.87943 55.803214,7.7711786 h 23.828023 z"
       id="path2"
       style="clip-rule:evenodd;fill-rule:evenodd;stroke-width:0.512949" />
    <path
       d="M 108.22148,48.878917 96.337475,31.790019 113.12476,7.7711786 h 23.827 z m 0,0 H 84.393969 Z"
       fill="#5796d2"
       id="path3"
       style="clip-rule:evenodd;fill-rule:evenodd;stroke-width:0.512949" />
    <path
       fill="#2d3367"
       d="M 108.22148,48.878917 H 84.393456 L 96.33645,31.791045 Z"
       id="path5"
       style="clip-rule:evenodd;fill-rule:evenodd;stroke-width:0.512949" />
    <path
       d="m 54.857336,69.93958 5.198226,-17.516698 4.411362,0.02975 -2.509347,8.823237 7.986617,-8.803232 4.769913,0.02 -15.694702,17.426932 z m 19.050416,-0.02975 10.296939,-16.630322 4.043065,0.0092 -10.276935,16.601084 z m 8.095875,-0.0595 3.674767,-12.29898 4.251835,0.0097 -1.463444,5.626538 5.287992,-5.60602 3.654762,0.02924 -10.855028,12.269229 z m 19.259703,0.06925 10.30719,-16.630835 4.0323,0.01026 -10.27591,16.600571 z m 5.41828,0.02001 7.64704,-12.328731 h 4.11283 l -7.71732,12.328731 z m 8.49341,-13.67317 1.82251,-2.878158 4.04357,0.02052 -1.79327,2.877645 z m -3.10642,13.663424 7.69731,-12.29898 5.39776,0.01026 c 1.82251,0 2.93766,0.677093 2.93766,2.628864 0,1.075654 -0.43805,1.971776 -1.00589,2.868411 l -4.31082,6.801705 h -4.14258 l 5.26696,-8.345169 c 0.0903,-0.16004 0.16004,-0.348805 0.16004,-0.538596 0,-0.487302 -0.56783,-0.577581 -0.9469,-0.577581 l -0.99564,0.01026 -6.02458,9.460833 z m -39.047737,-0.02 h -6.492397 c -1.304429,0.01026 -2.937146,-0.637083 -2.937146,-2.190806 0,-0.538083 0.248267,-1.095659 0.527824,-1.553722 l 1.243902,-2.031792 c 0.906381,-1.493194 2.151308,-1.842 3.814289,-1.832254 h 2.938172 c 0.856112,0 2.270313,-0.487814 2.270313,-1.552696 0,-0.797123 -1.264932,-0.786864 -1.772752,-0.786864 l -4.252348,-0.03026 2.101553,-2.380084 5.257728,0.01026 c 1.434205,0.01026 2.818142,0.905868 2.818142,2.469337 0,1.115151 -0.647342,2.001527 -1.204918,2.917654 z m -0.995635,-5.407509 -1.911761,-0.06976 c -0.338546,-0.01026 -0.538083,0.06976 -0.71659,0.358551 l -1.056162,1.692732 c -0.08925,0.149268 -0.169273,0.279044 -0.169273,0.458577 0,0.368297 0.358551,0.538083 0.686839,0.527824 l 0.727362,-0.02 c 0.537057,-0.01026 0.766859,-0.179532 1.035131,-0.637083 z m 25.264794,5.377758 -2.708884,-0.01026 c -1.553723,0 -2.868411,-1.215176 -2.868411,-2.79865 0,-0.925873 0.438571,-1.851746 0.956137,-2.5986 l 3.00742,-4.331855 c 1.075654,-1.563982 2.728889,-2.559103 4.641166,-2.559103 l 3.20593,0.0097 c 1.42446,0.01026 2.74889,0.926386 2.74889,2.460104 0,0.736595 -0.38881,1.363931 -0.7766,1.971776 l -3.57577,5.587041 c -1.07514,1.672214 -2.718117,2.279546 -4.629878,2.2698 z m 4.162068,-8.633959 0.24929,-0.36881 c 0.0703,-0.119517 0.1503,-0.259552 0.1503,-0.398562 0,-0.478068 -0.63708,-0.53757 -0.99564,-0.53757 -0.5191,0 -0.975625,0.209283 -1.265442,0.667346 l -3.45625,5.397251 c -0.13901,0.209283 -0.298537,0.448317 -0.318029,0.707356 -0.03026,0.537571 0.517566,0.706844 0.956137,0.706844 0.487815,0 0.905868,-0.179019 1.175167,-0.597586 z m 32.57483,8.723212 h -4.81967 c -0.99666,0 -1.94254,-0.06976 -2.66015,-0.836107 -0.48679,-0.538084 -0.79559,-1.20543 -0.79559,-1.932792 0,-0.965883 0.41754,-1.921507 0.95563,-2.708371 l 2.97664,-4.282099 c 1.34547,-1.92202 3.56551,-2.599113 5.81684,-2.599113 1.77224,0 4.04256,0.07951 4.04256,2.38983 0,0.936645 -0.50782,1.763006 -0.98589,2.529865 l -1.21518,1.961517 h -6.38262 l -1.22544,1.832254 a 1.0387219,1.0387219 0 0 0 -0.17851,0.567322 c 0,0.547829 0.6971,0.6576 1.1049,0.6576 h 4.91918 z m -1.82302,-7.548559 h 2.23133 l 0.80635,-1.29417 c 0.12927,-0.209283 0.28931,-0.428312 0.28931,-0.677093 0,-0.398048 -0.50782,-0.418053 -0.79764,-0.418053 -0.50782,0 -0.98486,0.119517 -1.28442,0.557575 z m 3.84507,6.503169 c 0,-0.757113 0.62631,-1.394196 1.38342,-1.394196 0.76635,0 1.40445,0.627337 1.40445,1.394196 0,0.746854 -0.6381,1.394195 -1.40445,1.394195 -0.75711,0 -1.38342,-0.647341 -1.38342,-1.394195 z m 0.33854,0 c 0,0.57758 0.46781,1.055649 1.04488,1.055649 0.56783,0 1.05514,-0.478069 1.05514,-1.055649 0,-0.567322 -0.48679,-1.055649 -1.05514,-1.055649 -0.57707,0 -1.04488,0.487814 -1.04488,1.055649 z"
       id="path6"
       style="clip-rule:evenodd;fill:#2d3367;fill-opacity:1;fill-rule:evenodd;stroke-width:0.512949" />
    <path
       d="m 136.88559,69.660536 v -1.523972 l 0.66734,0.01077 c 0.3088,0 0.53706,0.16876 0.53706,0.487814 0,0.228776 -0.17953,0.358039 -0.39753,0.368298 l 0.36778,0.657088 h -0.3088 l -0.3488,-0.647342 h -0.19954 v 0.647342 z m 0.32828,-0.896122 0.27751,-0.0097 c 0.13029,0 0.2693,-0.02052 0.2693,-0.180046 0,-0.179019 -0.18928,-0.179019 -0.31854,-0.179019 h -0.23955 z"
       id="path7"
       style="clip-rule:evenodd;fill-rule:evenodd;stroke-width:0.512949" />
  </g>
</svg>
