<?xml version="1.0" encoding="UTF-8" standalone="no"?>
<svg
   width="2500"
   height="1000"
   viewBox="0 0 192.756 77.1024"
   version="1.1"
   id="svg5"
   xmlns:xlink="http://www.w3.org/1999/xlink"
   xmlns="http://www.w3.org/2000/svg"
   xmlns:svg="http://www.w3.org/2000/svg">
  <defs
     id="defs5">
    <clipPath
       clipPathUnits="userSpaceOnUse"
       id="clipPath8">
      <use
         x="0"
         y="0"
         xlink:href="#g7"
         id="use8" />
    </clipPath>
  </defs>
  <g
     id="g8"
     clip-path="url(#clipPath8)">
    <g
       id="g7">
      <path
         d="m 8.504,56.3352 10.788,-36.353 9.155,0.062 -5.208,18.311 16.575,-18.269 9.899,0.041 -32.57,36.167 z M 46.2,56.2732 H 32.725 c -2.707,0.021 -6.097,-1.322 -6.097,-4.547 0,-1.115 0.517,-2.273 1.096,-3.223 l 2.583,-4.217 c 1.881,-3.1 4.464,-3.824 7.915,-3.803 h 6.097 c 1.777,0 4.712,-1.014 4.712,-3.224 0,-1.653 -2.625,-1.633 -3.679,-1.633 l -8.825,-0.062 4.36,-4.939 10.913,0.021 c 2.976,0.021 5.849,1.88 5.849,5.125 0,2.315 -1.343,4.154 -2.5,6.056 z m 1.839,0 21.369,-34.514 8.391,0.021 -21.328,34.452 z m 16.802,-0.123 7.626,-25.524 8.825,0.02 -3.039,11.677 10.975,-11.635 7.584,0.062 -22.526,25.46 z m 31.723,0.06 -5.621,-0.02 c -3.224,0 -5.952,-2.521 -5.952,-5.809 0,-1.922 0.909,-3.844 1.984,-5.393 l 6.241,-8.991 c 2.232,-3.245 5.663,-5.311 9.632,-5.311 l 6.654,0.021 c 2.955,0.021 5.703,1.922 5.703,5.105 0,1.529 -0.807,2.831 -1.611,4.092 l -7.42,11.594 c -2.233,3.474 -5.643,4.734 -9.61,4.712 z m 8.247,0.084 21.388,-34.514 8.371,0.021 -21.328,34.452 z m 11.242,0.041 15.871,-25.585 h 8.535 l -16.016,25.585 z m 17.629,-28.375 3.781,-5.973 8.391,0.041 -3.719,5.973 z m -6.45,28.354 15.977,-25.523 11.201,0.021 c 3.781,0 6.096,1.406 6.096,5.456 0,2.232 -0.908,4.091 -2.086,5.953 l -8.949,14.115 h -8.598 l 10.932,-17.318 c 0.188,-0.332 0.332,-0.725 0.332,-1.117 0,-1.013 -1.178,-1.199 -1.963,-1.199 l -2.068,0.021 -12.502,19.632 z m 45.571,0.084 h -10.002 c -2.066,0 -4.031,-0.145 -5.518,-1.736 -1.014,-1.117 -1.654,-2.502 -1.654,-4.01 0,-2.004 0.867,-3.988 1.984,-5.621 l 6.18,-8.887 c 2.789,-3.988 7.398,-5.394 12.068,-5.394 3.68,0 8.391,0.165 8.391,4.96 0,1.942 -1.055,3.659 -2.045,5.249 l -2.521,4.072 h -13.248 l -2.541,3.803 c -0.229,0.33 -0.373,0.764 -0.373,1.178 0,1.137 1.447,1.363 2.295,1.363 h 10.209 z m 4.195,-2.17 c 0,-1.572 1.303,-2.895 2.873,-2.895 1.592,0 2.914,1.303 2.914,2.895 0,1.549 -1.322,2.893 -2.914,2.893 -1.57,-0.001 -2.873,-1.344 -2.873,-2.893 z"
         id="path2"
         style="clip-rule:evenodd;fill-rule:evenodd" />
      <path
         d="m 44.133,45.0502 -3.968,-0.145 c -0.703,-0.02 -1.116,0.145 -1.488,0.744 l -2.191,3.514 c -0.186,0.311 -0.351,0.578 -0.351,0.951 0,0.764 0.744,1.115 1.426,1.096 l 1.509,-0.041 c 1.116,-0.021 1.591,-0.373 2.149,-1.324 z m 61.07,-6.758 0.516,-0.764 c 0.145,-0.248 0.311,-0.537 0.311,-0.827 0,-0.992 -1.322,-1.116 -2.066,-1.116 -1.074,0 -2.025,0.434 -2.625,1.384 l -7.171,11.201 c -0.289,0.434 -0.62,0.93 -0.661,1.469 -0.062,1.115 1.075,1.467 1.984,1.467 1.013,0 1.882,-0.373 2.438,-1.24 z m 63.818,2.44 h 4.629 l 1.674,-2.687 c 0.27,-0.434 0.6,-0.889 0.6,-1.405 0,-0.826 -1.055,-0.868 -1.654,-0.868 -1.053,0 -2.045,0.248 -2.666,1.158 z m 8.68,13.496 c 0,1.197 0.971,2.189 2.17,2.189 1.178,0 2.189,-0.992 2.189,-2.189 0,-1.18 -1.012,-2.191 -2.189,-2.191 -1.199,-10e-4 -2.17,1.011 -2.17,2.191 z"
         fill="#ffffff"
         id="path3"
         style="clip-rule:evenodd;fill-rule:evenodd" />
      <path
         d="m 178.734,55.7572 v -3.162 l 1.385,0.02 c 0.641,0 1.115,0.352 1.115,1.014 0,0.475 -0.371,0.744 -0.826,0.764 l 0.764,1.365 h -0.641 l -0.723,-1.344 h -0.412 v 1.344 h -0.662 z"
         id="path4"
         style="clip-rule:evenodd;fill-rule:evenodd" />
      <path
         d="m 179.416,53.8962 0.578,-0.02 c 0.27,0 0.559,-0.041 0.559,-0.373 0,-0.371 -0.393,-0.371 -0.662,-0.371 h -0.494 z"
         fill="#ffffff"
         id="path5"
         style="clip-rule:evenodd;fill-rule:evenodd" />
    </g>
  </g>
</svg>
