<svg id="Camada_1" data-name="Camada 1" xmlns="http://www.w3.org/2000/svg" viewBox="0 0 100 100"><defs><style>.cls-1{fill:#545454;}</style></defs><path class="cls-1" d="M98.15,100H1.85A1.85,1.85,0,0,1,0,98.15V1.85A1.85,1.85,0,0,1,1.85,0h96.3A1.85,1.85,0,0,1,100,1.85v96.3A1.85,1.85,0,0,1,98.15,100M3.7,96.3H96.3V3.7H3.7Z" transform="translate(0 0)"/><path class="cls-1" d="M16.44,85.59A2,2,0,0,1,15,82.13L82.13,15A2,2,0,0,1,85,17.87L17.87,85a2,2,0,0,1-1.43.6" transform="translate(0 0)"/><polygon class="cls-1" points="30.05 14.41 30.05 28.19 18.76 14.41 14.41 14.41 14.41 37.12 19.6 37.12 19.6 23.33 30.92 37.12 35.24 37.12 35.24 14.41 30.05 14.41"/><path class="cls-1" d="M69,85.59V62.88H74.2V81.31H85.59v4.28Z" transform="translate(0 0)"/></svg>